<?xml version="1.0" encoding="utf-8"?>
<!-- Generator: Adobe Illustrator 27.9.1, SVG Export Plug-In . SVG Version: 6.00 Build 0)  -->
<svg version="1.1" id="Ebene_1" xmlns="http://www.w3.org/2000/svg" xmlns:xlink="http://www.w3.org/1999/xlink" x="0px" y="0px"
	 viewBox="0 0 1000 1000" style="enable-background:new 0 0 1000 1000;" xml:space="preserve">
<style type="text/css">
	.st0{fill:#F08119;stroke:#F08119;stroke-width:66.6667;stroke-miterlimit:133.3333;}
	.st1{fill:#F08119;}
	.st2{font-family:'ArialMT';}
	.st3{font-size:167.6139px;}
	.st4{fill:#FFFFFF;}
	.st5{font-size:138.9086px;}
	.st6{fill:#70706F;}
	.st7{fill:#71706F;}
	.st8{font-family:'SegoeUI-Light';}
	.st9{font-size:21px;}
</style>
<path class="st0" d="M843.69,531.39c8,4.43,10.9,14.5,6.47,22.5c-1.51,2.72-3.75,4.97-6.47,6.47l-263.8,145.79
	c-8,4.43-18.08,1.53-22.5-6.48c-1.36-2.45-2.07-5.21-2.07-8.01V400.08c0-9.14,7.41-16.56,16.56-16.56c2.8,0,5.56,0.71,8.01,2.07
	L843.69,531.39L843.69,531.39z"/>
<text transform="matrix(1 0 0 1 116.9789 590.5814)" class="st1 st2 st3">Expo</text>
<text transform="matrix(1 0 0 1 551.89 582.9252)" class="st4 st2 st5">Play</text>
<path class="st6" d="M324.94,678.08c0,2.06,0.88,3.82,2.35,4.7c1.47,0.88,3.23,1.47,5.29,1.47c2.65,0,6.76-1.18,6.76-4.7
	c0-3.23-4.41-4.11-6.76-4.7c-8.82-2.35-19.99-2.35-19.99-14.11c-0.29-9.7,10.87-12.64,19.1-12.64c9.41,0,19.4,2.65,19.69,13.81
	h-12.64c0-1.76-0.59-2.94-1.76-3.82c-1.47-0.59-2.94-0.88-4.7-0.88c-2.35,0-6.17,0.29-6.17,3.23c0,4.11,9.41,4.7,15.87,6.17
	c8.82,1.76,10.87,7.94,10.87,11.46c0,11.46-10.87,15.28-20.57,15.28c-10.29,0-20.57-3.53-21.16-15.28
	C311.13,678.08,324.94,678.08,324.94,678.08z M401.65,692.48h-13.81v-5.88h-0.29c-2.65,4.41-8.23,7.05-13.23,7.05
	c-12.34,0-15.87-7.05-15.87-18.52v-25.86h14.11v24.98c0,5.58,2.35,7.64,7.05,7.64c2.94,0,7.64-2.06,7.64-9.7v-22.92h14.11v43.2
	H401.65z M435.45,692.48h-16.46l-14.11-43.2h14.4l7.94,28.51h0.29l7.94-28.51h14.4L435.45,692.48z M452.5,662.5
	c0.29-5.58,2.94-9.11,6.76-11.46c3.82-2.06,8.82-2.94,13.81-2.94c10.29,0,19.99,2.35,19.99,14.4v18.81c0,3.53,0,7.64,1.76,11.17
	h-14.11c-0.59-1.47-0.59-2.65-0.88-4.11c-3.53,3.82-9.11,5.29-14.11,5.29c-8.23,0-14.7-4.11-14.7-12.93
	c0-14.11,15.28-12.93,24.98-14.99c2.35-0.59,3.82-1.47,3.82-4.11c0-3.23-3.82-4.41-6.76-4.41c-3.82,0-6.47,1.76-7.05,5.29
	C466.02,662.5,452.5,662.5,452.5,662.5z M470.72,684.84c6.76,0,8.82-3.82,8.52-12.64c-2.06,1.18-5.58,1.47-8.82,2.35
	s-5.88,2.06-5.88,5.58C464.84,683.66,467.49,684.84,470.72,684.84"/>
<text transform="matrix(1 0 0 1 280.1343 662.6378)" class="st7 st8 st9">By</text>
</svg>
